{"title":"Sleepaway Camp 2 Unhappy Campers (1988) 720p fiveofseven zombiRG","uid":15232723,"size":1107084773,"categoryP":"video","categoryS":"hd___movies","magnet":"?xt=urn:btih:2e8421af7b2922e108bc2e455ff44326778519ca&amp;dn=Sleepaway+Camp+2+Unhappy+Campers+%281988%29+720p+fiveofseven+zombiRG&amp;tr=udp%3A%2F%2Ftracker.leechers-paradise.org%3A6969&amp;tr=udp%3A%2F%2Fzer0day.ch%3A1337&amp;tr=udp%3A%2F%2Fopen.demonii.com%3A1337&amp;tr=udp%3A%2F%2Ftracker.coppersurfer.tk%3A6969&amp;tr=udp%3A%2F%2Fexodus.desync.com%3A6969","seeders":1,"leechers":0,"uploader":"fiveofseven","files":3,"time":1467844998,"description":"\nPLOT - Angela, supposedly reformed and living under an assumed\r\nsurname, is working at a summer camp. However, when the\r\ncampers start misbehaving, she soon reverts to her old ways.\r\n\r\n\r\nINFO\r\n\r\nEncoder: fiveofseven\r\nSource: Blu-Ray\r\nRating: R \r\nGenre: Comedy, Horror\r\nSubtitles: English\r\nPoster: \r  https://yuq.me/users/25/564/pS8KLVIJ0B.jpg \r\n\r\nGeneral\r\nComplete name                            : Sleepaway Camp 2 Unhappy Campers 720p (fiveofseven zombiRG).mp4\r\nFormat                                   : MPEG-4\r\nFormat profile                           : Base Media\r\nCodec ID                                 : isom\r\nFile size                                : 1.02 GiB\r\nDuration                                 : 1h 20mn\r\nOverall bit rate mode                    : Variable\r\nOverall bit rate                         : 1 831 Kbps\r\nEncoded date                             : UTC 2016-01-19 20:56:45\r\nTagged date                              : UTC 2016-03-27 19:04:04\r\nWriting application                      : My MP4Box GUI 0.6.0.6 &lt;http://my-mp4box-gui.zymichost.com&gt;\r\n\r\nVideo\r\nID                                       : 1\r\nFormat                                   : AVC\r\nFormat/Info                              : Advanced Video Codec\r\nFormat profile                           :   \r\nFormat settings, CABAC                   : Yes\r\nFormat settings, ReFrames                : 7 frames\r\nCodec ID                                 : avc1\r\nCodec ID/Info                            : Advanced Video Coding\r\nDuration                                 : 1h 20mn\r\nBit rate                                 : 1 700 Kbps\r\nMaximum bit rate                         : 9 581 Kbps\r\nWidth                                    : 1 280 pixels\r\nHeight                                   : 696 pixels\r\nDisplay aspect ratio                     : 1.85:1\r\nFrame rate mode                          : Constant\r\nFrame rate                               : 23.976 fps\r\nColor space                              : YUV\r\nChroma subsampling                       : 4:2:0\r\nBit depth                                : 8 bits\r\nScan type                                : Progressive\r\nBits/(Pixel*Frame)                       : 0.080\r\nStream size                              : 973 MiB (93%)\r\nTitle                                    : 720p.mp4\r\nWriting library                          : x264 core 146 r2538 121396c\r\nLanguage                                 : English\r\nEncoded date                             : UTC 2016-01-19 04:09:53\r\nTagged date                              : UTC 2016-01-19 20:57:31\r\n\r\nAudio\r\nID                                       : 2\r\nFormat                                   : AAC\r\nFormat/Info                              : Advanced Audio Codec\r\nFormat profile                           : LC\r\nCodec ID                                 : 40\r\nDuration                                 : 1h 20mn\r\nBit rate mode                            : Variable\r\nBit rate                                 : 128 Kbps\r\nMaximum bit rate                         : 135 Kbps\r\nChannel count                            : 2 channels\r\nChannel positions                        : Front: L R\r\nSampling rate                            : 48.0 KHz\r\nCompression mode                         : Lossy\r\nStream size                              : 73.4 MiB (7%)\r\nTitle                                    : DTS to aac.mp4\r\nLanguage                                 : English\r\nEncoded date                             : UTC 2016-01-19 20:57:28\r\nTagged date                              : UTC 2016-01-19 20:57:31\r\n\r\n\r\nScreenshots - \r\n  \nhttps://yuq.me/users/25/564/EjfktJpziK.jpg \r\n  \nhttps://yuq.me/users/25/564/nIJm2iTgG5.jpg \r\n  \nhttps://yuq.me/users/25/564/A9PsFCbjvk.jpg \r\n  \nhttps://yuq.me/users/25/564/07USoATk6b.jpg \r\n \r\nsignature \r\n  \nhttps://yuq.me/users/25/564/aegRQCBILx.png","torrent":{"xt":"urn:btih:2e8421af7b2922e108bc2e455ff44326778519ca","amp;dn":"Sleepaway+Camp+2+Unhappy+Campers+%281988%29+720p+fiveofseven+zombiRG","amp;tr":["udp%3A%2F%2Ftracker.leechers-paradise.org%3A6969","udp%3A%2F%2Fzer0day.ch%3A1337","udp%3A%2F%2Fopen.demonii.com%3A1337","udp%3A%2F%2Ftracker.coppersurfer.tk%3A6969","udp%3A%2F%2Fexodus.desync.com%3A6969"],"infoHash":"2e8421af7b2922e108bc2e455ff44326778519ca","infoHashBuffer":{"type":"Buffer","data":[46,132,33,175,123,41,34,225,8,188,46,69,95,244,67,38,119,133,25,202]},"announce":[],"urlList":[]}}